<svg xmlns="http://www.w3.org/2000/svg" aria-hidden="true" style="position:absolute;width:0;height:0;overflow:hidden">
  <defs>
    <symbol id="icon-lock" viewBox="0 0 20 20">
      <path
        d="M15.8 8h-1.8v-2.4c0-2.897-1.335-4.6-4-4.6s-4 1.703-4 4.6v2.4h-2c-0.553 0-1 0.646-1 1.199v7.801c0 0.549 0.428 1.139 0.951 1.307l1.197 0.387c0.524 0.167 1.402 0.306 1.952 0.306h5.8c0.549 0 1.428-0.139 1.951-0.307l1.196-0.387c0.524-0.167 0.953-0.757 0.953-1.306v-7.801c0-0.553-0.648-1.199-1.2-1.199zM12 8h-4v-2.801c0-1.445 0.797-2.199 2-2.199s2 0.754 2 2.199v2.801z">
      </path>
    </symbol>
    <symbol id="icon-check" viewBox="0 0 32 32">
      <path
        d="M31.706 7.133l-2.839-2.839c-0.393-0.393-1.026-0.393-1.419 0l-14.515 15.324-8.32-8.324c-0.397-0.397-1.041-0.397-1.438 0l-2.876 2.878c-0.397 0.396-0.397 1.040 0 1.438l11.833 12.108c0.229 0.23 0.54 0.309 0.839 0.27 0.309 0.046 0.631-0.032 0.868-0.27l17.867-19.165c0.392-0.392 0.392-1.028 0-1.42z">
      </path>
    </symbol>
  </defs>
</svg>